# xmcd
# 
# Track frame offsets:
#     150
#     16537
#     37331
#     55771
#     76314
#     97128
#     114055
#     133868
#     149018
#     161969
#     180890
#     193758
#     210647
#     227706
#     242220
#     262535
#     278581
#     294639
#     309621
#     342034
# 
# Disc length: 4765
# 
# Revision: 4
# Processed by: cddbd v1.5.2PL0 Copyright (c) Steve Scherf et al.
# Submitted via: fre:ac v1.1beta2
# 
DISCID=1b129b14
DTITLE=José Luís Perales - Canciones De Un Poeta Cd1
DYEAR=2004
DGENRE=Pop
TTITLE0=Un Velero Llamado Libertad
TTITLE1=Quisiera Decir Tu Nombre
TTITLE2=Y ¿Cómo Es Él?
TTITLE3=Me Llamas
TTITLE4=Y Te Vas
TTITLE5=Te Quiero
TTITLE6=Tú Como Yo
TTITLE7=Ella Y Él
TTITLE8=Celos De Mi Guitarra
TTITLE9=El Amor
TTITLE10=Cosas De Doña Asunción
TTITLE11=Soledades
TTITLE12=Canción Para La Navidad
TTITLE13=Compraré
TTITLE14=Podré Olvidar
TTITLE15=Y Soñará
TTITLE16=Sí...
TTITLE17=A Tí Mujer
TTITLE18=Tentaciones
TTITLE19=DATA
EXTD=
EXTT0=
EXTT1=
EXTT2=
EXTT3=
EXTT4=
EXTT5=
EXTT6=
EXTT7=
EXTT8=
EXTT9=
EXTT10=
EXTT11=
EXTT12=
EXTT13=
EXTT14=
EXTT15=
EXTT16=
EXTT17=
EXTT18=
EXTT19=
PLAYORDER=
